<?xml version="1.0" standalone="no"?>
<!DOCTYPE svg PUBLIC "-//W3C//DTD SVG 20010904//EN"
 "http://www.w3.org/TR/2001/REC-SVG-20010904/DTD/svg10.dtd">
<svg version="1.0" xmlns="http://www.w3.org/2000/svg"
 width="120.000000pt" height="120.000000pt" viewBox="0 0 120.000000 120.000000"
 preserveAspectRatio="xMidYMid meet">
<metadata>
Created by potrace 1.13, written by Peter Selinger 2001-2015
</metadata>
<g transform="translate(0.000000,120.000000) scale(0.100000,-0.100000)"
fill="#000000" stroke="none">
<path d="M469 1089 c-54 -26 -89 -67 -133 -151 -41 -80 -41 -74 -22 -230 2
-16 4 -37 5 -48 0 -12 11 -31 24 -44 32 -32 77 -103 77 -121 0 -10 -9 -15 -26
-15 -15 0 -64 -18 -110 -41 -46 -22 -95 -42 -108 -43 -14 -1 -32 -8 -40 -16
-13 -10 -16 -10 -16 2 0 7 -9 14 -20 14 -11 0 -19 -5 -16 -12 3 -7 -5 -9 -20
-6 -13 2 -24 8 -24 13 0 5 -6 9 -14 9 -8 0 -17 6 -19 13 -3 6 -6 -84 -6 -200
l-1 -213 600 0 600 0 0 76 c0 73 -1 78 -32 106 -39 35 -87 58 -105 51 -7 -3
-13 1 -13 9 0 7 -12 31 -26 51 -16 25 -26 54 -27 80 l-2 42 -125 42 c-69 23
-135 42 -148 43 -12 0 -25 7 -29 16 -8 22 17 125 36 147 13 16 13 17 -2 11
-12 -4 -17 -1 -17 10 0 9 8 16 19 16 21 0 34 40 20 62 -5 7 -9 32 -9 56 0 23
-9 62 -21 85 -26 52 -132 163 -179 186 -33 17 -37 17 -71 0z"/>
</g>
</svg>
